<svg xmlns="http://www.w3.org/2000/svg" viewBox="0 0 4284.918 4750.28"><path fill="#ff9100" d="m1163.888 188.554-975.334 975.333C67.825 1284.616 0 1448.359 0 1619.096v16.742c0-243.412 197.324-440.736 440.737-440.736h754.366V440.736C1195.102 197.324 1392.427 0 1635.839 0h-16.742c-170.737 0-334.48 67.825-455.209 188.554z"/><path fill="#ebf2ff" d="M0 1619.096v16.742c0-243.412 197.324-440.736 440.737-440.736h754.366V440.736C1195.102 197.324 1392.427 0 1635.839 0h1838.996v4750.28H0V1619.096z"/><linearGradient id="a" x1="3484.097" x2="937.856" y1="4744.932" y2="334.713" gradientUnits="userSpaceOnUse"><stop offset=".001" stop-color="#ebf2ff"/><stop offset="1" stop-color="#c8d6e8"/></linearGradient><path fill="url(#a)" d="M0 1619.096v16.742c0-243.412 197.324-440.736 440.737-440.736h754.366V440.736C1195.102 197.324 1392.427 0 1635.839 0l1838.996 1803.35v2946.93L0 1635.838v-16.742z"/><path fill="#aeb4c1" d="M2149.94 3694.523h933.987v171.984H2149.94zM2149.94 4025.938h933.987v171.984H2149.94zM372.351 1777.589h2711.576v212.155H372.351zM372.351 2269.271h2711.576v212.155H372.351zM372.351 2760.954h2711.576v212.155H372.351zM372.351 3252.636h1526.517v212.155H372.351z"/><path fill="#373e49" d="m4177.882 3148.499-1359.4-489.964 489.966 1359.399 156.933-411.179 518.215 518.215 301.322-301.323-518.215-518.214z"/><linearGradient id="b" x1="2818.482" x2="4284.918" y1="3391.752" y2="3391.752" gradientUnits="userSpaceOnUse"><stop offset="0" stop-color="#fff" stop-opacity="0"/><stop offset=".141" stop-color="#cbcccf" stop-opacity=".141"/><stop offset=".3" stop-color="#98989f" stop-opacity=".3"/><stop offset=".457" stop-color="#6d6e77" stop-opacity=".457"/><stop offset=".609" stop-color="#4c4d58" stop-opacity=".609"/><stop offset=".753" stop-color="#343542" stop-opacity=".753"/><stop offset=".887" stop-color="#262735" stop-opacity=".887"/><stop offset="1" stop-color="#212230"/></linearGradient><path fill="url(#b)" d="m4177.882 3148.499-1359.4-489.964 489.966 1359.399 156.933-411.179 518.215 518.215 301.322-301.323-518.215-518.214z"/></svg>